# xmcd CD database file
#
# Track frame offsets:
#	150
#	29890
#	50451
#	65346
#	98425
#	132307
#	165021
#	186991
#	215242
#
# Disc length: 3300 seconds
#
# Revision: 0
# Processed by: cddbd v1.5.1PL0 Copyright (c) Steve Scherf et al.
# Submitted via: CDex 1.51
#
DISCID=7d0ce209
DTITLE=Kitaro - World Of Kita[Vol03][Faraway Places]
DYEAR=2000
DGENRE=New Age
TTITLE0=Dawn Rising Sun
TTITLE1=Legend Of The Road
TTITLE2=Mysterious Island
TTITLE3=Aura
TTITLE4=Tibet
TTITLE5=The Clouds
TTITLE6=Shimmering Horizon
TTITLE7=Everlasting Road
TTITLE8=Journey To A Fantasy
EXTD=YEAR: 2000
EXTT0=
EXTT1=
EXTT2=
EXTT3=
EXTT4=
EXTT5=
EXTT6=
EXTT7=
EXTT8=
PLAYORDER=
